<svg id="Iconly_Light-Outline_Danger_Triangle" data-name="Iconly/Light-Outline/Danger Triangle" xmlns="http://www.w3.org/2000/svg" xmlns:xlink="http://www.w3.org/1999/xlink" width="24" height="24" viewBox="0 0 24 24">
  <defs>
    <clipPath id="clip-path">
      <path id="Clip_2" data-name="Clip 2" d="M0,0H20.014V18.185H0Z" transform="translate(0 0.814)" fill="none"/>
    </clipPath>
  </defs>
  <g id="Group_8" data-name="Group 8" transform="translate(2 2)">
    <g id="Group_3" data-name="Group 3" transform="translate(0 0.185)">
      <path id="Clip_2-2" data-name="Clip 2" d="M0,0H20.014V18.185H0Z" transform="translate(0 0.814)" fill="none"/>
      <g id="Group_3-2" data-name="Group 3" clip-path="url(#clip-path)">
        <path id="Fill_1" data-name="Fill 1" d="M17.2,18.186H2.816A2.813,2.813,0,0,1,.375,13.979l7.2-12.566a2.811,2.811,0,0,1,4.878,0l7.186,12.564a2.813,2.813,0,0,1-2.44,4.208ZM10.013,1.5a1.3,1.3,0,0,0-1.139.659l-7.2,12.565a1.313,1.313,0,0,0,1.139,1.962H17.2a1.311,1.311,0,0,0,1.137-1.962L11.151,2.159A1.3,1.3,0,0,0,10.013,1.5Z" transform="translate(0 0.814)"/>
      </g>
    </g>
    <path id="Fill_4" data-name="Fill 4" d="M.75,4.6A.75.75,0,0,1,0,3.85V.75a.75.75,0,0,1,1.5,0v3.1a.75.75,0,0,1-.75.75" transform="translate(9.254 7.564)"/>
    <path id="Fill_6" data-name="Fill 6" d="M1,2A1,1,0,0,1,1,0H1A1,1,0,1,1,1,2" transform="translate(9.001 13.499)"/>
  </g>
</svg>
