<svg id="Iconly_Light-Outline_Danger_Circle" data-name="Iconly/Light-Outline/Danger Circle" xmlns="http://www.w3.org/2000/svg" width="24" height="24" viewBox="0 0 24 24">
  <g id="Danger_Circle" data-name="Danger Circle" transform="translate(2 2)">
    <path id="Fill_1" data-name="Fill 1" d="M10,20A10,10,0,1,1,20,10,10.011,10.011,0,0,1,10,20ZM10,1.5A8.5,8.5,0,1,0,18.5,10,8.509,8.509,0,0,0,10,1.5Z"/>
    <path id="Fill_3" data-name="Fill 3" d="M.75,5.919A.75.75,0,0,1,0,5.169V.75a.75.75,0,0,1,1.5,0V5.169a.75.75,0,0,1-.75.75" transform="translate(9.244 5.454)"/>
    <path id="Fill_5" data-name="Fill 5" d="M1,2A1,1,0,0,1,1,0H1A1,1,0,1,1,1,2" transform="translate(8.999 12.796)"/>
  </g>
</svg>
