<svg id="Iconly_Light-Outline_Document" data-name="Iconly/Light-Outline/Document" xmlns="http://www.w3.org/2000/svg" xmlns:xlink="http://www.w3.org/1999/xlink" width="24" height="24" viewBox="0 0 24 24">
  <defs>
    <clipPath id="clip-path">
      <path id="Clip_8" data-name="Clip 8" d="M0,0H18.165V19.91H0Z" transform="translate(0 0.09)" fill="none"/>
    </clipPath>
  </defs>
  <g id="Document" transform="translate(3 1)">
    <path id="Fill_1" data-name="Fill 1" d="M7.97,1.5H.75A.75.75,0,0,1,.75,0H7.97a.75.75,0,1,1,0,1.5" transform="translate(4.746 14.474)"/>
    <path id="Fill_3" data-name="Fill 3" d="M7.97,1.5H.75A.75.75,0,0,1,.75,0H7.97a.75.75,0,1,1,0,1.5" transform="translate(4.746 10.287)"/>
    <path id="Fill_5" data-name="Fill 5" d="M3.505,1.5H.75A.75.75,0,0,1,.75,0H3.505a.75.75,0,0,1,0,1.5" transform="translate(4.746 6.11)"/>
    <g id="Group_9" data-name="Group 9" transform="translate(0 0.91)">
      <path id="Clip_8-2" data-name="Clip 8" d="M0,0H18.165V19.91H0Z" transform="translate(0 0.09)" fill="none"/>
      <g id="Group_9-2" data-name="Group 9" clip-path="url(#clip-path)">
        <path id="Fill_7" data-name="Fill 7" d="M5.257,19.91A5.025,5.025,0,0,1,0,14.553v-9.2A4.973,4.973,0,0,1,5.215,0l7.693,0a5.025,5.025,0,0,1,5.257,5.357v9.2a4.973,4.973,0,0,1-5.215,5.354ZM12.909,1.5,5.22,1.5A3.494,3.494,0,0,0,1.5,5.357v9.2A3.5,3.5,0,0,0,5.256,18.41l7.689,0a3.494,3.494,0,0,0,3.721-3.854v-9.2A3.5,3.5,0,0,0,12.909,1.5Z" transform="translate(0 0.09)"/>
      </g>
    </g>
  </g>
</svg>
