<svg id="Iconly_Light-Outline_Edit_Square" data-name="Iconly/Light-Outline/Edit Square" xmlns="http://www.w3.org/2000/svg" width="24" height="24" viewBox="0 0 24 24">
  <g id="Edit_Square" data-name="Edit Square" transform="translate(2 2)">
    <path id="Fill_1" data-name="Fill 1" d="M14.577,20.332H5.753C2.312,20.332,0,17.917,0,14.323V6.009C0,2.415,2.312,0,5.753,0H9.492a.75.75,0,1,1,0,1.5H5.753C3.169,1.5,1.5,3.27,1.5,6.009v8.314c0,2.739,1.669,4.509,4.253,4.509h8.824c2.584,0,4.254-1.77,4.254-4.509V10.3a.75.75,0,1,1,1.5,0v4.028c0,3.594-2.313,6.009-5.754,6.009" transform="translate(0 0.037)"/>
    <path id="Fill_3" data-name="Fill 3" d="M4.5,14.928H.751A.752.752,0,0,1,.213,14.7.744.744,0,0,1,0,14.159L.094,10.38A2.908,2.908,0,0,1,.949,8.388L8.422.915a3.139,3.139,0,0,1,4.431,0l1.218,1.217a3.133,3.133,0,0,1,0,4.432l-7.51,7.51A2.9,2.9,0,0,1,4.5,14.928ZM10.638,1.5a1.627,1.627,0,0,0-1.156.477L2.009,9.449a1.415,1.415,0,0,0-.415.967l-.075,3.011H4.5a1.408,1.408,0,0,0,1-.416L13.01,5.5a1.634,1.634,0,0,0,0-2.309L11.794,1.976A1.625,1.625,0,0,0,10.638,1.5Z" transform="translate(5.348 0)"/>
    <path id="Fill_5" data-name="Fill 5" d="M5.316,6.067a.744.744,0,0,1-.53-.22L.22,1.281A.75.75,0,0,1,1.28.22L5.846,4.787a.75.75,0,0,1-.53,1.28" transform="translate(12.415 1.85)"/>
  </g>
</svg>
