<svg id="Iconly_Light-Outline_Graph" data-name="Iconly/Light-Outline/Graph" xmlns="http://www.w3.org/2000/svg" xmlns:xlink="http://www.w3.org/1999/xlink" width="24" height="24" viewBox="0 0 24 24">
  <defs>
    <clipPath id="clip-path">
      <path id="Clip_4" data-name="Clip 4" d="M0,0H10.419V10.289H0Z" transform="translate(0.474 0.656)" fill="none"/>
    </clipPath>
  </defs>
  <g id="Graph" transform="translate(2)">
    <path id="Fill_1" data-name="Fill 1" d="M8.857,17.54A8.866,8.866,0,0,1,0,8.684,9.227,9.227,0,0,1,6.527.054,1.916,1.916,0,0,1,8.147.4,1.762,1.762,0,0,1,8.829,1.79c0,4.385.148,5.565.753,6.014.275.2.612.265,1.442.265.36,0,.816-.012,1.332-.026l.077,0c.85-.024,1.909-.055,3.3-.055a1.929,1.929,0,0,1,1.471.669,1.767,1.767,0,0,1,.408,1.419A8.789,8.789,0,0,1,8.857,17.54ZM6.982,1.5a.393.393,0,0,0-.1.013A7.65,7.65,0,0,0,1.5,8.684,7.358,7.358,0,0,0,16.124,9.845a.257.257,0,0,0-.065-.214.437.437,0,0,0-.331-.145c-1.4,0-2.457.031-3.307.055H12.4c-.5.015-.976.029-1.373.029a3.54,3.54,0,0,1-2.338-.562C7.434,8.08,7.329,6.484,7.329,1.79a.256.256,0,0,0-.108-.211A.383.383,0,0,0,6.982,1.5Z" transform="translate(0 4.805)"/>
    <g id="Group_5" data-name="Group 5" transform="translate(10 0.345)">
      <path id="Clip_4-2" data-name="Clip 4" d="M0,0H10.419V10.289H0Z" transform="translate(0.474 0.656)" fill="none"/>
      <g id="Group_5-2" data-name="Group 5" clip-path="url(#clip-path)">
        <path id="Fill_3" data-name="Fill 3" d="M4.841,10.29c-1.266,0-2.4-.049-3.127-.091A1.645,1.645,0,0,1,.169,8.651C.091,7.328-.078,3.972.041,1.372A1.425,1.425,0,0,1,1.431,0l.19,0A8.576,8.576,0,0,1,7.577,2.733a8.94,8.94,0,0,1,2.841,5.883A1.437,1.437,0,0,1,9.2,10.022,29.973,29.973,0,0,1,4.841,10.29ZM1.537,1.5c-.112,2.537.053,5.783.129,7.061A.139.139,0,0,0,1.8,8.7c.563.033,1.707.087,3.046.087a28.923,28.923,0,0,0,4.071-.238,7.6,7.6,0,0,0-2.4-4.755A7.154,7.154,0,0,0,1.559,1.5Z" transform="translate(0.474 0.656)"/>
      </g>
    </g>
  </g>
</svg>
