<svg id="Iconly_Light-Outline_Message" data-name="Iconly/Light-Outline/Message" xmlns="http://www.w3.org/2000/svg" xmlns:xlink="http://www.w3.org/1999/xlink" width="24" height="24" viewBox="0 0 24 24">
  <defs>
    <clipPath id="clip-path">
      <path id="Clip_4" data-name="Clip 4" d="M0,0H21.5V19.5H0Z" transform="translate(0 0.5)" fill="none"/>
    </clipPath>
  </defs>
  <g id="Message" transform="translate(1 1)">
    <path id="Fill_1" data-name="Fill 1" d="M6.659,5.614a3.042,3.042,0,0,1-1.894-.663L.28,1.335A.75.75,0,1,1,1.221.167L5.7,3.779a1.544,1.544,0,0,0,1.923,0L12.061.169a.75.75,0,1,1,.947,1.164L8.564,4.945a3.059,3.059,0,0,1-1.905.669" transform="translate(4.118 6.851)"/>
    <g id="Group_5" data-name="Group 5" transform="translate(0 0.5)">
      <path id="Clip_4-2" data-name="Clip 4" d="M0,0H21.5V19.5H0Z" transform="translate(0 0.5)" fill="none"/>
      <g id="Group_5-2" data-name="Group 5" clip-path="url(#clip-path)">
        <path id="Fill_3" data-name="Fill 3" d="M15.675,19.5H5.822a5.526,5.526,0,0,1-3.985-1.62A6.544,6.544,0,0,1,0,13.188V6.32C0,2.717,2.511,0,5.841,0h9.818C18.989,0,21.5,2.717,21.5,6.32v6.868a6.547,6.547,0,0,1-1.837,4.693A5.53,5.53,0,0,1,15.675,19.5ZM15.663,18h.013A4.05,4.05,0,0,0,18.6,16.817a5.051,5.051,0,0,0,1.4-3.63V6.32c0-2.793-1.826-4.82-4.341-4.82H5.841C3.326,1.5,1.5,3.527,1.5,6.32v6.868a5.054,5.054,0,0,0,1.4,3.63A4.05,4.05,0,0,0,5.825,18h9.838Z" transform="translate(0 0.5)"/>
      </g>
    </g>
  </g>
</svg>
