<svg id="Iconly_Light-Outline_Paper_Plus" data-name="Iconly/Light-Outline/Paper Plus" xmlns="http://www.w3.org/2000/svg" width="24" height="24" viewBox="0 0 24 24">
  <g id="Paper_Plus" data-name="Paper Plus" transform="translate(3 2)">
    <path id="Fill_1" data-name="Fill 1" d="M4.4,19.855A4.476,4.476,0,0,1,0,15.315V4.479A4.6,4.6,0,0,1,4.569,0h6.667a.752.752,0,0,1,.541.23l5.066,5.278a.749.749,0,0,1,.208.519v9.3a4.531,4.531,0,0,1-4.47,4.526ZM4.573,1.5A3.091,3.091,0,0,0,1.5,4.5V15.328a2.969,2.969,0,0,0,2.913,3.027h8.159a3.027,3.027,0,0,0,2.979-3.025v-9L10.918,1.5H4.573Z" transform="translate(0 0.012)"/>
    <path id="Fill_3" data-name="Fill 3" d="M6.073,6.984H3.319A3.332,3.332,0,0,1,0,3.659V.75a.75.75,0,0,1,1.5,0V3.659A1.829,1.829,0,0,0,3.321,5.484H6.073a.75.75,0,0,1,0,1.5" transform="translate(10.224 0)"/>
    <path id="Fill_5" data-name="Fill 5" d="M5.649,1.5H.75A.75.75,0,0,1,.75,0h4.9a.75.75,0,0,1,0,1.5" transform="translate(5.145 10.164)"/>
    <path id="Fill_7" data-name="Fill 7" d="M.75,6.4A.75.75,0,0,1,0,5.65V.75a.75.75,0,0,1,1.5,0v4.9a.75.75,0,0,1-.75.75" transform="translate(7.594 7.714)"/>
  </g>
</svg>
