<svg id="Iconly_Light-Outline_Time_Circle" data-name="Iconly/Light-Outline/Time Circle" xmlns="http://www.w3.org/2000/svg" width="24" height="24" viewBox="0 0 24 24">
  <g id="Time_Circle" data-name="Time Circle" transform="translate(2 2)">
    <path id="Fill_1" data-name="Fill 1" d="M10,20A10,10,0,1,1,20,10,10.011,10.011,0,0,1,10,20ZM10,1.5A8.5,8.5,0,1,0,18.5,10,8.509,8.509,0,0,0,10,1.5Z"/>
    <path id="Fill_3" data-name="Fill 3" d="M4.52,8.6a.756.756,0,0,1-.384-.105L.366,6.243A.755.755,0,0,1,0,5.6V.75a.75.75,0,0,1,1.5,0V5.172L4.905,7.2A.75.75,0,0,1,4.52,8.6" transform="translate(8.911 5.095)"/>
  </g>
</svg>
