<svg id="Iconly_Light-Outline_Voice_2" data-name="Iconly/Light-Outline/Voice 2" xmlns="http://www.w3.org/2000/svg" width="24" height="24" viewBox="0 0 24 24">
  <g id="Voice_2" data-name="Voice 2" transform="translate(3 1)">
    <path id="Fill_1" data-name="Fill 1" d="M.75,4.661A.75.75,0,0,1,0,3.911V.75a.75.75,0,0,1,1.5,0V3.911a.75.75,0,0,1-.75.75" transform="translate(8 16.839)"/>
    <path id="Fill_3" data-name="Fill 3" d="M4.812,14.349A4.826,4.826,0,0,1,0,9.519V4.831a4.811,4.811,0,1,1,9.623,0V9.519A4.825,4.825,0,0,1,4.812,14.349Zm0-12.848A3.325,3.325,0,0,0,1.5,4.831V9.519a3.312,3.312,0,1,0,6.623,0V4.831A3.325,3.325,0,0,0,4.812,1.5Z" transform="translate(3.938)"/>
    <path id="Fill_5" data-name="Fill 5" d="M8.75,9.538A8.779,8.779,0,0,1,0,.75a.75.75,0,0,1,1.5,0A7.25,7.25,0,1,0,16,.75a.75.75,0,0,1,1.5,0A8.779,8.779,0,0,1,8.75,9.538" transform="translate(0 8.801)"/>
    <path id="Fill_7" data-name="Fill 7" d="M2.74,1.5H.75A.75.75,0,0,1,.75,0H2.74a.75.75,0,0,1,0,1.5" transform="translate(10.069 4.756)"/>
    <path id="Fill_9" data-name="Fill 9" d="M3.74,1.5H.75A.75.75,0,0,1,.75,0H3.74a.75.75,0,0,1,0,1.5" transform="translate(9.071 8.094)"/>
  </g>
</svg>
