<svg id="Iconly_Light-Outline_Voice" data-name="Iconly/Light-Outline/Voice" xmlns="http://www.w3.org/2000/svg" xmlns:xlink="http://www.w3.org/1999/xlink" width="24" height="24" viewBox="0 0 24 24">
  <defs>
    <clipPath id="clip-path">
      <path id="Clip_6" data-name="Clip 6" d="M0,0H17.5V9.538H0Z" transform="translate(0 0.301)" fill="none"/>
    </clipPath>
  </defs>
  <g id="Voice" transform="translate(3 1)">
    <path id="Fill_1" data-name="Fill 1" d="M.75,4.661A.75.75,0,0,1,0,3.911V.75a.75.75,0,0,1,1.5,0V3.911a.75.75,0,0,1-.75.75" transform="translate(7.999 16.839)"/>
    <path id="Fill_3" data-name="Fill 3" d="M4.812,14.349A4.826,4.826,0,0,1,0,9.519V4.831a4.812,4.812,0,1,1,9.624,0V9.519A4.826,4.826,0,0,1,4.812,14.349Zm0-12.848A3.325,3.325,0,0,0,1.5,4.831V9.519a3.312,3.312,0,1,0,6.624,0V4.831A3.325,3.325,0,0,0,4.812,1.5Z" transform="translate(3.938)"/>
    <g id="Group_7" data-name="Group 7" transform="translate(0 8.5)">
      <path id="Clip_6-2" data-name="Clip 6" d="M0,0H17.5V9.538H0Z" transform="translate(0 0.301)" fill="none"/>
      <g id="Group_7-2" data-name="Group 7" clip-path="url(#clip-path)">
        <path id="Fill_5" data-name="Fill 5" d="M8.75,9.538A8.779,8.779,0,0,1,0,.75a.75.75,0,0,1,1.5,0A7.25,7.25,0,1,0,16,.75a.75.75,0,0,1,1.5,0A8.779,8.779,0,0,1,8.75,9.538" transform="translate(-0.001 0.301)"/>
      </g>
    </g>
  </g>
</svg>
