<svg id="Iconly_Light-Outline_Wallet" data-name="Iconly/Light-Outline/Wallet" xmlns="http://www.w3.org/2000/svg" xmlns:xlink="http://www.w3.org/1999/xlink" width="24" height="24" viewBox="0 0 24 24">
  <defs>
    <clipPath id="clip-path">
      <path id="Clip_6" data-name="Clip 6" d="M0,0H20.639V19.173H0Z" transform="translate(0 0.827)" fill="none"/>
    </clipPath>
  </defs>
  <g id="Wallet" transform="translate(2 2)">
    <path id="Fill_1" data-name="Fill 1" d="M7.49,6.882H3.442A3.441,3.441,0,1,1,3.442,0H7.49a.75.75,0,0,1,0,1.5H3.442a1.941,1.941,0,1,0,0,3.882H7.49a.75.75,0,0,1,0,1.5" transform="translate(12.399 7.014)"/>
    <path id="Fill_3" data-name="Fill 3" d="M1.062,1.5H.75A.75.75,0,0,1,.75,0h.312a.75.75,0,0,1,0,1.5" transform="translate(15.236 9.644)"/>
    <g id="Group_7" data-name="Group 7" transform="translate(0 0.173)">
      <path id="Clip_6-2" data-name="Clip 6" d="M0,0H20.639V19.173H0Z" transform="translate(0 0.827)" fill="none"/>
      <g id="Group_7-2" data-name="Group 7" clip-path="url(#clip-path)">
        <path id="Fill_5" data-name="Fill 5" d="M14.642,19.173H6a6,6,0,0,1-6-6V6A6,6,0,0,1,6,0h8.644a6,6,0,0,1,6,6v7.177A6,6,0,0,1,14.642,19.173ZM6,1.5A4.5,4.5,0,0,0,1.5,6v7.177a4.5,4.5,0,0,0,4.5,4.5h8.644a4.5,4.5,0,0,0,4.5-4.5V6a4.5,4.5,0,0,0-4.5-4.5Z" transform="translate(0 0.827)"/>
      </g>
    </g>
    <path id="Fill_8" data-name="Fill 8" d="M6.149,1.5H.75A.75.75,0,0,1,.75,0h5.4a.75.75,0,0,1,0,1.5" transform="translate(4.536 5.538)"/>
  </g>
</svg>
